<svg width="23" height="22" viewBox="0 0 23 22" fill="none" xmlns="http://www.w3.org/2000/svg">
<path fill-rule="evenodd" clip-rule="evenodd" d="M0.787842 2.06634C0.787842 1.10905 1.56388 0.333008 2.52117 0.333008H8.38784C9.34513 0.333008 10.1212 1.10905 10.1212 2.06634V7.93301C10.1212 8.8903 9.34513 9.66634 8.38784 9.66634H2.52118C1.56388 9.66634 0.787842 8.8903 0.787842 7.93301V2.06634ZM2.52117 2.06634H8.38784V7.93301L2.52117 7.93301V2.06634Z" fill="#2B313B"/>
<path fill-rule="evenodd" clip-rule="evenodd" d="M0.787842 14.0663C0.787842 13.109 1.56388 12.333 2.52117 12.333H8.38784C9.34513 12.333 10.1212 13.109 10.1212 14.0663V19.933C10.1212 20.8903 9.34513 21.6663 8.38784 21.6663H2.52118C1.56388 21.6663 0.787842 20.8903 0.787842 19.933V14.0663ZM2.52117 14.0663H8.38784V19.933L2.52117 19.933V14.0663Z" fill="#2B313B"/>
<path fill-rule="evenodd" clip-rule="evenodd" d="M14.5212 0.333008C13.5639 0.333008 12.7878 1.10905 12.7878 2.06634V7.93301C12.7878 8.8903 13.5639 9.66634 14.5212 9.66634H20.3878C21.3451 9.66634 22.1212 8.8903 22.1212 7.93301V2.06634C22.1212 1.10905 21.3451 0.333008 20.3878 0.333008H14.5212ZM20.3878 2.06634H14.5212V7.93301L20.3878 7.93301V2.06634Z" fill="#2B313B"/>
<path fill-rule="evenodd" clip-rule="evenodd" d="M12.7878 14.0663C12.7878 13.109 13.5639 12.333 14.5212 12.333H20.3878C21.3451 12.333 22.1212 13.109 22.1212 14.0663V19.933C22.1212 20.8903 21.3451 21.6663 20.3878 21.6663H14.5212C13.5639 21.6663 12.7878 20.8903 12.7878 19.933V14.0663ZM14.5212 14.0663H20.3878V19.933L14.5212 19.933V14.0663Z" fill="#2B313B"/>
</svg>
