<svg width="22" height="24" viewBox="0 0 22 24" fill="none" xmlns="http://www.w3.org/2000/svg">
<path d="M15.4663 12.6713C15.945 12.6713 16.333 12.2833 16.333 11.8046C16.333 11.326 15.945 10.9379 15.4663 10.9379L6.52745 10.938C6.04881 10.938 5.66079 11.326 5.66079 11.8046C5.66079 12.2833 6.04881 12.6713 6.52745 12.6713L15.4663 12.6713Z" fill="#23262D"/>
<path d="M16.333 16.4845C16.333 16.9632 15.945 17.3512 15.4663 17.3512L6.52745 17.3512C6.04881 17.3512 5.66079 16.9632 5.66079 16.4845C5.66079 16.0059 6.04881 15.6178 6.52745 15.6178L15.4663 15.6178C15.945 15.6178 16.333 16.0059 16.333 16.4845Z" fill="#23262D"/>
<path d="M10.133 7.99144C10.6117 7.99144 10.9997 7.60342 10.9997 7.12477C10.9997 6.64612 10.6117 6.25811 10.133 6.25811L6.52745 6.2581C6.04881 6.2581 5.66079 6.64611 5.66079 7.12476C5.66079 7.60341 6.04881 7.99143 6.52745 7.99143L10.133 7.99144Z" fill="#23262D"/>
<path fill-rule="evenodd" clip-rule="evenodd" d="M4.33301 0C2.12387 0 0.333008 1.79086 0.333008 4V20C0.333008 22.2091 2.12387 24 4.33301 24H17.6663C19.8755 24 21.6663 22.2091 21.6663 20V8.39959C21.6663 7.29396 21.2087 6.23764 20.4021 5.48145L15.7092 1.08185C14.9678 0.386803 13.9897 0 12.9734 0H4.33301ZM12.9734 1.73333L4.33301 1.73333C3.08116 1.73333 2.06634 2.74816 2.06634 4L2.06634 20C2.06634 21.2518 3.08116 22.2667 4.33301 22.2667H17.6663C18.9182 22.2667 19.933 21.2518 19.933 20V8.39959C19.933 8.26578 19.9212 8.13323 19.8981 8.00335L16.3324 8.00336C14.8965 8.00337 13.7324 6.83931 13.7324 5.40336V1.86418C13.4908 1.77833 13.2344 1.73333 12.9734 1.73333ZM15.4657 3.22955L18.7089 6.27002L16.3324 6.27003C15.8538 6.27003 15.4657 5.88201 15.4657 5.40336V3.22955Z" fill="#23262D"/>
</svg>
