<svg width="22" height="24" viewBox="0 0 22 24" fill="none" xmlns="http://www.w3.org/2000/svg">
<path d="M8.10228 10.6208C8.48115 10.9133 8.55115 11.4576 8.25863 11.8365L7.11244 13.321L8.26618 14.8606C8.55322 15.2436 8.4754 15.7868 8.09236 16.0739C7.70933 16.3609 7.16614 16.2831 6.8791 15.9L5.33003 13.8329C5.09642 13.5212 5.09951 13.0919 5.33757 12.7835L6.88665 10.7772C7.17916 10.3983 7.72342 10.3283 8.10228 10.6208Z" fill="#2B313B"/>
<path d="M13.7408 14.8506C13.4483 15.2295 13.5183 15.7738 13.8971 16.0663C14.276 16.3588 14.8203 16.2888 15.1128 15.9099L16.6619 13.9036C16.8999 13.5952 16.903 13.1659 16.6694 12.8542L15.1203 10.7871C14.8333 10.404 14.2901 10.3262 13.9071 10.6132C13.524 10.9003 13.4462 11.4435 13.7332 11.8265L14.887 13.3661L13.7408 14.8506Z" fill="#2B313B"/>
<path d="M11.8267 10.3174C12.2894 10.4397 12.5654 10.914 12.4431 11.3768L11.2831 15.7651C11.1607 16.2278 10.6864 16.5038 10.2237 16.3815C9.76093 16.2591 9.48496 15.7848 9.60728 15.3221L10.7673 10.9338C10.8896 10.4711 11.3639 10.1951 11.8267 10.3174Z" fill="#2B313B"/>
<path fill-rule="evenodd" clip-rule="evenodd" d="M4.33301 0C2.12387 0 0.333008 1.79086 0.333008 4V20C0.333008 22.2091 2.12387 24 4.33301 24H17.6663C19.8755 24 21.6663 22.2091 21.6663 20V8.39959C21.6663 7.29396 21.2087 6.23764 20.4021 5.48145L15.7092 1.08185C14.9678 0.386803 13.9897 0 12.9734 0H4.33301ZM12.9734 1.73333L4.33301 1.73333C3.08116 1.73333 2.06634 2.74816 2.06634 4L2.06634 20C2.06634 21.2518 3.08116 22.2667 4.33301 22.2667H17.6663C18.9182 22.2667 19.933 21.2518 19.933 20V8.39959C19.933 8.26578 19.9212 8.13323 19.8981 8.00335L16.3324 8.00336C14.8965 8.00337 13.7324 6.83931 13.7324 5.40336V1.86418C13.4908 1.77833 13.2344 1.73333 12.9734 1.73333ZM15.4657 3.22955L18.7089 6.27002L16.3324 6.27003C15.8538 6.27003 15.4657 5.88201 15.4657 5.40336V3.22955Z" fill="#2B313B"/>
</svg>
