<svg width="24" height="24" viewBox="0 0 24 24" fill="none" xmlns="http://www.w3.org/2000/svg">
<path d="M5.56649 0.928316C5.61175 0.451815 6.03473 0.102231 6.51123 0.147499L12.7643 0.741545C13.8716 0.846739 14.9094 1.32806 15.705 2.10535L23.0878 9.31839C23.4302 9.65289 23.4366 10.2016 23.1021 10.544C22.7676 10.8863 22.2189 10.8927 21.8765 10.5582L14.4937 3.34518C13.9815 2.84472 13.3133 2.53484 12.6004 2.46711L6.3473 1.87306C5.8708 1.8278 5.52122 1.40482 5.56649 0.928316Z" fill="#2B313B"/>
<path d="M6.51497 10.244C7.25135 10.244 7.84831 9.64708 7.84831 8.9107C7.84831 8.17432 7.25135 7.57736 6.51497 7.57736C5.77859 7.57736 5.18164 8.17432 5.18164 8.9107C5.18164 9.64708 5.77859 10.244 6.51497 10.244Z" fill="#2B313B"/>
<path fill-rule="evenodd" clip-rule="evenodd" d="M2.72122 3.19221C1.62066 3.07288 0.691805 4.00173 0.811138 5.10229L1.77402 13.9826C1.87232 14.8892 2.27746 15.735 2.92229 16.3798L9.1985 22.656C10.7606 24.2181 13.2933 24.2181 14.8554 22.656L20.275 17.2364C21.8371 15.6743 21.8371 13.1417 20.275 11.5796L13.9988 5.30336C13.3539 4.65853 12.5081 4.2534 11.6015 4.15509L2.72122 3.19221ZM13.6297 21.4304L19.0493 16.0108C19.9345 15.1256 19.9345 13.6904 19.0493 12.8052L12.7731 6.52901C12.4077 6.16361 11.9284 5.93403 11.4147 5.87833L2.53437 4.91544L3.49725 13.7957C3.55296 14.3095 3.78254 14.7888 4.14794 15.1542L10.4242 21.4304C11.3093 22.3156 12.7445 22.3156 13.6297 21.4304Z" fill="#2B313B"/>
</svg>
