<svg width="17" height="17" viewBox="0 0 17 17" fill="none" xmlns="http://www.w3.org/2000/svg">
<path fill-rule="evenodd" clip-rule="evenodd" d="M0.367188 7C0.367188 3.13 3.49719 0 7.36719 0C11.2372 0 14.3672 3.13 14.3672 7C14.3672 8.76212 13.7183 10.3708 12.646 11.6005L16.1474 15.111C16.4009 15.3652 16.4004 15.7767 16.1462 16.0302C15.892 16.2837 15.4805 16.2832 15.227 16.029L11.7045 12.4973C10.5125 13.4386 9.00619 14 7.36719 14C3.49719 14 0.367188 10.87 0.367188 7ZM13.0672 7C13.0672 3.86 10.5072 1.3 7.36719 1.3C4.22719 1.3 1.66719 3.86 1.66719 7C1.66719 10.14 4.22719 12.7 7.36719 12.7C10.5072 12.7 13.0672 10.14 13.0672 7Z" fill="#717681"/>
</svg>
